<svg xmlns="http://www.w3.org/2000/svg" viewBox="0 0 627 707" width="627" height="707">
	<style>
		tspan { white-space:pre }
		.shp0 { fill: #000000 } 
	</style>
	<g id="Layer">
		<path id="Layer" fill-rule="evenodd" class="shp0" d="M76.4 0L550 0L556.4 2.9C575.8 11.7 591.8 29.3 598.4 49.1C602 59.9 603 70.9 603 100.7C603 125.1 603.1 127 604.8 127C608.1 127 616.5 131.7 619.8 135.4C626.7 143.2 626.5 141.5 626.8 193.8C627.1 247 627 248.1 620.3 255.9C616.8 260.1 608.4 265 604.8 265C603.3 265 603.1 269.1 602.8 314.2C602.4 361.5 602.3 363.8 600.1 371.4C592.4 399 571.7 419.6 544.3 427.2C536.7 429.3 534.5 429.4 471.3 429.8L406 430.1L406 450L411.3 450C415.6 450 420.1 451.4 434.9 457.5C445 461.6 453.5 465 453.6 465C453.8 465 454 466.3 454 468L454 471L467.9 471L468.2 478.2L468.5 485.4L475 486.6C498.4 490.9 515.6 507.6 520.5 530.6C521.3 534.4 522 542.3 522 548.2L522 559L524.7 559C526.8 559 529.6 561.1 536.7 568.2L546 577.5L546 626.4L536.7 635.7L527.4 645L490 645L486 641.4L482.1 637.8L481.8 624.7L481.5 611.5L474.2 611.2L466.9 610.9L467.2 588L467.5 565L470.3 562.3C472.5 560 474.2 559.4 479.3 559L485.5 558.5L485.4 547.5C485.4 535.5 484.5 532.7 479.3 527.8C476.2 524.9 469.6 521.7 468.6 522.7C468.3 523.1 468 527.5 468 532.7L468 542L453 542L453 602L442.5 613.3L432.1 624.5L432 639.6L432 654.7L442 655.9C457.7 657.6 468.3 661.9 481.3 671.8L486 675.4L486 707L324 707L323.8 676.7L323.5 646.5L304.5 646.5L304.2 676.7L304 707L142 707L142 675.4L148.3 670.8C161.8 661 170.3 657.6 186 655.9L196 654.7L196 639.6L195.9 624.5L186 613.2L176 601.9L176 542L160.1 542L159.8 532.2C159.5 521.1 159 520.7 151.5 525.8C145 530.3 143 535.4 143 548.2L143 559L148.9 559C154.1 559 155.2 559.3 157.8 561.9C159.4 563.6 161 566.3 161.4 568.1C161.7 569.8 162 580.2 162 591.1L162 611L147 611L147 636.4L142.8 640.7L138.6 645L101.5 645L92.3 635.8L83 626.5L83 576.5L91.8 567.8C98.2 561.4 101.3 559.1 103.5 558.8L106.5 558.5L107.1 544C107.5 533.2 108.1 528.1 109.6 523.9C116.3 505 132.9 490.7 152.5 486.7L159.5 485.3L159.8 478.2L160.1 471L174 471L174 468.1C174 465.3 174.5 465 192.9 457.6C207.9 451.6 212.8 450 216.9 450L222 450L222 430.1L155.8 429.8L89.5 429.4L80.5 426.6C58.4 419.9 42.3 406.4 32.5 386.5C24.5 370.3 24.6 371.8 24.2 315.2L23.9 265L21.7 265C15.2 264.9 6.2 257.7 2.4 249.5L0 244.5L0 147.5L2.4 142.5C6.1 134.5 15.5 127 21.8 127L24 127L24 97.1C24 64.4 24.7 57.5 29.6 45.3C36.9 26.9 50.1 12.8 68.4 3.9L76.4 0ZM312.5 25.1C106.8 25.1 98.2 25.2 91.4 27C70.5 32.5 54.3 47.6 47.3 68.3L44.5 76.5L44.5 209.5C44.5 356.2 44.1 347 51 361.5C58 376 71.7 388 87.1 393.1L94.5 395.5L533.5 395.5L540.2 392.9C543.9 391.4 549.5 388.7 552.6 386.9C560.8 381.9 571.1 370.7 575.4 361.9C582.5 347.4 582.1 357 581.8 207.9L581.5 73.5L578.9 66.8C574.8 56.4 570.2 49.4 562.3 42C554 34.2 543.6 28.7 533.4 26.5C527.5 25.2 496.1 25 312.5 25.1Z" />
		<path id="Layer" class="shp0" d="M202.3 184.1C180.2 195 175.7 240 194.6 261C204.3 271.7 219.7 271.7 229.4 261C237.2 252.3 241 240.8 241 225.5C241 210.2 237.5 199.5 229.6 190.3C222.6 182.2 211.3 179.6 202.3 184.1Z" />
		<path id="Layer" class="shp0" d="M405.5 183.9C400.3 186.2 393.5 193.8 390.4 200.5C381.3 220.2 384.3 246.6 397.2 260.6C410.2 274.8 428.5 270.8 438.2 251.6C450.2 228 442.5 192.5 423.6 183.9C418.4 181.5 410.6 181.5 405.5 183.9Z" />
	</g>
</svg>